# xmcd
#
# Track frame offsets: 
#        150
#        18838
#        59546
#        86375
#        113739
#        139207
#        176304
#        199123
#        231221
#        267620
#
# Disc length: 3983 seconds
#
# Revision: 1
# Processed by: cddbd v1.4PL0 Copyright (c) Steve Scherf et al.
# Submitted via: ExactAudioCopy v0.95a3
#
DISCID=840f8d0a
DTITLE=Various Artist - Dakini Lounge: Prem Joshua Remixed
DYEAR=2003
DGENRE=New Age
TTITLE0=Niraj Chag - Bolo Hari (The Blue God Comes to Town)
TTITLE1=Cosmic Rocker - Himalayan Trance
TTITLE2=Sean Dinsmore - Mangalam (Chillums at Dawn Remix)
TTITLE3=Aram Ram - Dakini (Monsoon Remix)
TTITLE4=Karsh Kale - Secret Place
TTITLE5=Prem Joshua and Maneesh de Moor - Shiva Moon (Moon Nectar Remi
TTITLE5=x)
TTITLE6=Sean Dinsmore - Sky Kisses Earth
TTITLE7=Joi - Water Down the Ganges (Joi on the Ganges Remix)
TTITLE8=Dharma Dogz - Bolo Hari (Instant Pudding Mix)
TTITLE9=Toires - Lahore Connection
EXTD=
EXTT0=
EXTT1=
EXTT2=
EXTT3=
EXTT4=
EXTT5=
EXTT6=
EXTT7=
EXTT8=
EXTT9=
PLAYORDER=
